<svg width="20" height="20" viewBox="0 0 20 20" fill="none" xmlns="http://www.w3.org/2000/svg">
<path d="M2.00391 5.884L10.0009 9.882L17.9979 5.884C17.9683 5.37444 17.745 4.89549 17.3737 4.54523C17.0025 4.19497 16.5113 3.99991 16.0009 4H4.00091C3.49049 3.99991 2.99935 4.19497 2.62808 4.54523C2.25681 4.89549 2.03351 5.37444 2.00391 5.884Z" fill="white"/>
<path d="M18 8.11804L10 12.118L2 8.11804V14C2 14.5305 2.21071 15.0392 2.58579 15.4143C2.96086 15.7893 3.46957 16 4 16H16C16.5304 16 17.0391 15.7893 17.4142 15.4143C17.7893 15.0392 18 14.5305 18 14V8.11804Z" fill="white"/>
</svg>
